<svg width="800" height="800" viewBox="0 0 800 800" fill="none" xmlns="http://www.w3.org/2000/svg">
<path fill-rule="evenodd" clip-rule="evenodd" d="M148.579 271.02C127.475 437.52 236.982 592.483 442.554 616.588C199.053 678.735 49.9155 439.335 148.579 271.02Z" fill="#FFB67C"/>
<path fill-rule="evenodd" clip-rule="evenodd" d="M247.801 482.33C173.759 357.948 213.502 196.981 336.764 121.482C260.123 138.688 199.836 197.9 180.972 274.294C162.131 350.689 187.985 431.296 247.801 482.33Z" fill="#79C738"/>
<path fill-rule="evenodd" clip-rule="evenodd" d="M244.756 356.471C253.807 288.903 290.481 228.235 346.018 188.828C401.466 149.555 470.781 135.061 537.274 149.107C470.557 110.955 387.912 115.032 325.25 159.525C262.611 203.883 231.224 280.748 244.756 356.471Z" fill="#CAA7E3"/>
<mask id="mask0_4794_37" style="mask-type:luminance" maskUnits="userSpaceOnUse" x="278" y="196" width="405" height="482">
<path d="M278.539 196.129H682.221V677.887H278.539V196.129Z" fill="white"/>
</mask>
<g mask="url(#mask0_4794_37)">
<path fill-rule="evenodd" clip-rule="evenodd" d="M619.672 213.847C641.134 359.401 587.613 378.645 459.041 271.804C674.985 455.286 522.711 703.961 280.891 647.819C317.117 664.801 357.532 674.3 400.098 674.3C555.89 674.3 682.109 547.654 682.109 391.549C682.221 324.205 658.743 262.417 619.672 213.847ZM352.245 339.932H405.408V381.266H446.607V434.563H405.408V475.875H352.245V434.563H311.023V381.266H352.245V339.932ZM559.855 278.592C539.76 290.13 514.13 283.342 502.615 263.201C490.988 243.061 497.866 217.364 517.961 205.804C538.057 194.155 563.686 201.055 575.202 221.195C586.717 241.246 579.929 266.943 559.855 278.592Z" fill="#FFC520"/>
</g>
<path d="M349.548 380.613V334.161V329H407.613V380.613H456V442.548H407.613V489H349.548V442.548H306V380.613H349.548Z" fill="#1F396D" stroke="#1F396D"/>
</svg>
